<svg xmlns="http://www.w3.org/2000/svg" viewBox="0 0 48 48" fill="none">
  <circle cx="24" cy="24" r="20" fill="#db2777" fill-opacity="0.15" stroke="#db2777" stroke-width="1.5"/>
  <path d="M24 14 C24 14 22 10 18 10 C14 10 12 13 12 16 C12 20 18 26 24 30 C30 26 36 20 36 16 C36 13 34 10 30 10 C26 10 24 14 24 14Z" stroke="#db2777" stroke-width="1.8" fill="#db2777" fill-opacity="0.15"/>
  <circle cx="18" cy="16" r="1" fill="#db2777"/>
  <circle cx="30" cy="16" r="1" fill="#db2777"/>
  <path d="M16 34 L22 28" stroke="#db2777" stroke-width="1.5" stroke-linecap="round"/>
  <path d="M32 34 L26 28" stroke="#db2777" stroke-width="1.5" stroke-linecap="round"/>
  <circle cx="16" cy="34" r="3" stroke="#db2777" stroke-width="1.5"/>
  <circle cx="32" cy="34" r="3" stroke="#db2777" stroke-width="1.5"/>
  <circle cx="16" cy="34" r="1" fill="#db2777"/>
  <circle cx="32" cy="34" r="1" fill="#db2777"/>
</svg>
