<svg xmlns="http://www.w3.org/2000/svg" viewBox="0 0 32 32" fill="none">
  <defs>
    <linearGradient id="fg" x1="0%" y1="0%" x2="100%" y2="100%">
      <stop offset="0%" stopColor="#8B0000"/>
      <stop offset="100%" stopColor="#FF4444"/>
    </linearGradient>
  </defs>
  <rect width="32" height="32" rx="6" fill="#0A0A0A"/>
  <path d="M8 12 C8 12 12 8 16 8 C20 8 24 12 24 12 C24 16 26 22 24 26 C22 28 18 30 16 30 C14 30 10 28 8 26 C6 22 8 16 8 12Z" fill="url(#fg)" opacity="0.9"/>
  <circle cx="13" cy="16" r="3" fill="#0A0A0A"/>
  <circle cx="19" cy="16" r="3" fill="#0A0A0A"/>
  <circle cx="12.5" cy="15.5" r="1.5" fill="#1A1A1A"/>
  <circle cx="18.5" cy="15.5" r="1.5" fill="#1A1A1A"/>
  <path d="M13 22 Q16 25 19 22" stroke="#0A0A0A" strokeWidth="1.2" fill="none" strokeLinecap="round"/>
  <path d="M10 10 L12 11" stroke="#FF4444" strokeWidth="0.8" strokeLinecap="round" opacity="0.5"/>
  <path d="M22 10 L20 11" stroke="#FF4444" strokeWidth="0.8" strokeLinecap="round" opacity="0.5"/>
</svg>
