<svg xmlns="http://www.w3.org/2000/svg" viewBox="0 0 512 512">
  <defs>
    <linearGradient id="bg" x1="0%" y1="0%" x2="100%" y2="100%">
      <stop offset="0%" style="stop-color:#0A0A0A"/>
      <stop offset="100%" style="stop-color:#1A1A1A"/>
    </linearGradient>
    <linearGradient id="mask" x1="0%" y1="0%" x2="100%" y2="100%">
      <stop offset="0%" style="stop-color:#8B0000"/>
      <stop offset="100%" style="stop-color:#B22222"/>
    </linearGradient>
  </defs>
  <rect width="512" height="512" rx="100" fill="url(#bg)" stroke="#8B0000" stroke-width="8"/>
  <g transform="translate(256,256)">
    <path d="M-144,-102 C-144,-102 -92,-144 0,-144 C92,-144 144,-102 144,-102 C144,-42 164,54 144,92 C124,130 74,154 0,154 C-74,154 -124,130 -144,92 C-164,54 -144,-42 -144,-102Z" fill="url(#mask)" opacity="0.9"/>
    <ellipse cx="-58" cy="-42" rx="26" ry="32" fill="#0A0A0A"/>
    <ellipse cx="58" cy="-42" rx="26" ry="32" fill="#0A0A0A"/>
    <path d="M-38,54 Q0,92 38,54" stroke="#0A0A0A" stroke-width="9" fill="none" stroke-linecap="round"/>
    <path d="M-102,-92 Q-74,-124 0,-124 Q74,-124 102,-92" stroke="#0A0A0A" stroke-width="7" fill="none" opacity="0.5"/>
  </g>
</svg>
